<svg xmlns="http://www.w3.org/2000/svg" width="1141.3" height="333" viewBox="0 0 1141.3 333"><path d="M353.9,153.7A37.011,37.011,0,0,1,339,138a49.218,49.218,0,0,1-5-22.7V52.1h22.9v61.5c0,7.7,1.8,13.7,5.3,17.9s8.7,6.2,15.2,6.2c6.6,0,11.7-2.1,15.2-6.2,3.6-4.2,5.3-10.1,5.3-17.9V52.1h22.9v63.3a50.815,50.815,0,0,1-5,22.7,37.011,37.011,0,0,1-14.9,15.7c-6.6,3.8-14.4,5.7-23.5,5.7-9.1-.1-17-2-23.5-5.8ZM487,100.1a21.412,21.412,0,0,0,10.1-8.4c2.5-3.8,3.7-8.5,3.7-14.2a22.133,22.133,0,0,0-9.2-18.6c-6.1-4.6-14.3-6.9-24.5-6.9h-35V157.4h36.4c7.5,0,14.1-1.3,19.7-4a30.447,30.447,0,0,0,13-11.2,29.176,29.176,0,0,0,4.6-16.2C505.8,113.5,499.6,104.9,487,100.1ZM455,72.3h12a12.865,12.865,0,0,1,8.7,2.9,10.766,10.766,0,0,1,3.2,8.2c0,3.5-1.1,6.3-3.2,8.2-2.2,2-5,2.9-8.7,2.9H455ZM479,134c-2.6,2.3-6.4,3.4-11.3,3.4H455V110.9h12.6c4.9,0,8.7,1.1,11.3,3.4,2.7,2.3,4,5.5,4,9.9A12.119,12.119,0,0,1,479,134Zm35.7-81.9h22.9V157.5H514.7V52.1Zm45.2,101.2a33.762,33.762,0,0,1-14.3-17.2l18.2-13.6a23.437,23.437,0,0,0,8.1,11.2,20.328,20.328,0,0,0,12.3,4.2,14.553,14.553,0,0,0,9.3-2.9,9.735,9.735,0,0,0,3.6-7.9,10.652,10.652,0,0,0-4.1-8.3c-2.7-2.3-7.7-4.8-15-7.4-9.1-3.3-16.1-7.4-21-12.1-4.9-4.8-7.3-11.2-7.3-19.3a26.78,26.78,0,0,1,4.4-15.2,29.4,29.4,0,0,1,12.2-10.6A39.009,39.009,0,0,1,584,50.4c8.1,0,15.2,1.6,21.1,4.9a30.507,30.507,0,0,1,13.3,14.4L600.2,82.4c-3.5-8.3-9.2-12.4-17-12.4a14.264,14.264,0,0,0-8.7,2.6,7.809,7.809,0,0,0-3.4,6.6c0,3,1.6,5.7,4.7,7.9,3.2,2.3,8.7,4.8,16.8,7.6,9.4,3.3,16.3,7.3,20.8,12,4.4,4.7,6.6,10.9,6.6,18.7,0,7-1.6,13.1-4.9,18.2A31.5,31.5,0,0,1,602,155.3a40.936,40.936,0,0,1-18.3,4c-9.3,0-17.2-2-23.8-6ZM726.7,77.1a50.234,50.234,0,0,0-19.1-19.7A53.291,53.291,0,0,0,680,50.3a63.776,63.776,0,0,0-22.9,4.1A49.391,49.391,0,0,0,640.2,65l3.6,3.6A47.942,47.942,0,0,0,631,85.4a53.986,53.986,0,0,0-4.7,23,49.469,49.469,0,0,0,6.8,25.5,48.322,48.322,0,0,0,19,18.5c8.1,4.6,17.4,6.9,27.8,6.9a54.534,54.534,0,0,0,27.6-7.1,50.681,50.681,0,0,0,19.1-19.6,56.13,56.13,0,0,0,6.8-27.8A54.389,54.389,0,0,0,726.7,77.1Zm-20,44.7A28.74,28.74,0,0,1,696,133.5a30.075,30.075,0,0,1-16,4.2,31.328,31.328,0,0,1-16.1-4.1,28.452,28.452,0,0,1-10.6-10.9,30.87,30.87,0,0,1-3.7-15,29.114,29.114,0,0,1,2.8-13.3,32.816,32.816,0,0,1,7.7-9.4l-3.6-3.6a28.275,28.275,0,0,1,9.9-6.8A34.355,34.355,0,0,1,680,72a29.966,29.966,0,0,1,15.9,4.2,28.74,28.74,0,0,1,10.7,11.7,37.315,37.315,0,0,1,3.8,17A37.446,37.446,0,0,1,706.7,121.8Zm59-48V98h44.7v17.5H765.7v42H742.8V52.1h72V73.8Zm139.9,0H876.1v83.8H853.3V73.8H823.7V52.1h81.9V73.8Z" transform="translate(-50.1 -50.3)"/><path d="M91.7,371.8a80.358,80.358,0,0,1-30.6-31.9c-7.4-13.7-11-29.3-11-46.9,0-17.4,3.7-33,11-46.7a80.59,80.59,0,0,1,30.3-32,83.223,83.223,0,0,1,43.1-11.5c16.9,0,31.1,3.4,42.7,10.3A68.573,68.573,0,0,1,204,242.6L186.3,255c-5.5-10.3-12.2-17.9-20.2-23s-18.3-7.6-30.7-7.6a60.37,60.37,0,0,0-32.1,8.7,58.575,58.575,0,0,0-22,24.4c-5.2,10.4-7.8,22.3-7.8,35.6,0,13.8,2.5,25.8,7.6,36.1a56.345,56.345,0,0,0,21.5,24c9.3,5.7,20.2,8.6,32.8,8.6,12.8,0,22.8-2.5,30.3-7.5s14.1-13.1,20.1-24.4l18.4,12.9c-7.1,13.1-16.3,23.1-27.5,30s-25,10.3-41.4,10.3c-16,0-30.5-3.7-43.6-11.3ZM385.9,246.9a81.883,81.883,0,0,0-30.4-32.2Q336,203,311.4,203t-44.1,11.7a81.3,81.3,0,0,0-30.4,32.2C229.6,260.6,226,276,226,293.1s3.7,32.5,10.9,46.2a82.148,82.148,0,0,0,30.4,32.3q19.5,11.7,44.1,11.7t44.1-11.7a81.565,81.565,0,0,0,30.4-32.3c7.3-13.7,10.9-29.1,10.9-46.2C396.9,276,393.2,260.6,385.9,246.9Zm-20.1,81.6a59.123,59.123,0,0,1-22,24.4c-9.4,5.9-20.2,8.8-32.3,8.8s-22.8-2.9-32.3-8.8a59.809,59.809,0,0,1-22-24.4c-5.2-10.4-7.8-22.2-7.8-35.5,0-13.2,2.6-25.1,7.8-35.4a59.123,59.123,0,0,1,22-24.4c9.4-5.9,20.2-8.8,32.3-8.8s22.8,2.9,32.3,8.8a59.809,59.809,0,0,1,22,24.4q7.8,15.6,7.8,35.4C373.6,306.3,371,318.2,365.8,328.5Zm57.9-122.6H455l83,147.3h1.5L538,332.6V205.9h22.8V380.1H529.5l-83-147.4H445l1.5,20.6V380H423.7V205.9Zm167.9,0h31.3l83,147.3h1.5l-1.5-20.6V205.9h22.8V380.1H697.4l-83-147.4H613l1.5,20.6V380H591.7l-.1-174.1Zm280,152.8v21.4h-112V205.9H870.1v21.4H782.4v56.2h79.2v18.9H782.4v56.2C782.5,358.7,871.6,358.7,871.6,358.7Zm61,13.1A80.358,80.358,0,0,1,902,339.9c-7.3-13.7-11-29.3-11-46.9,0-17.4,3.7-33,11-46.7a80.59,80.59,0,0,1,30.3-32,82.965,82.965,0,0,1,43.1-11.5c16.9,0,31.1,3.4,42.7,10.3a68.573,68.573,0,0,1,26.8,29.5L1027,254.8c-5.5-10.3-12.2-17.9-20.2-23-8-5-18.3-7.6-30.7-7.6a60.37,60.37,0,0,0-32.1,8.7,58.575,58.575,0,0,0-22,24.4c-5.2,10.4-7.8,22.3-7.8,35.6,0,13.8,2.5,25.8,7.6,36.1a56.345,56.345,0,0,0,21.5,24c9.3,5.7,20.2,8.6,32.8,8.6,12.8,0,22.8-2.5,30.3-7.5s14.1-13.1,20.1-24.4l18.4,12.9c-7.1,13.1-16.3,23.1-27.5,30s-25,10.3-41.4,10.3a82.368,82.368,0,0,1-43.4-11.1Zm258.8-145h-51.5V380.1h-22.8V226.8h-51.7V205.9h126Z" transform="translate(-50.1 -50.3)"/></svg>